<?xml version="1.0" standalone="no"?>
<!DOCTYPE svg PUBLIC "-//W3C//DTD SVG 20010904//EN"
 "http://www.w3.org/TR/2001/REC-SVG-20010904/DTD/svg10.dtd">
<svg version="1.0" xmlns="http://www.w3.org/2000/svg"
 width="225.000000pt" height="225.000000pt" viewBox="0 0 225.000000 225.000000"
 preserveAspectRatio="xMidYMid meet">
<metadata>
Created by potrace 1.11, written by Peter Selinger 2001-2013
</metadata>
<g transform="translate(0.000000,225.000000) scale(0.100000,-0.100000)"
fill="#000000" stroke="none">
<path d="M0 1125 l0 -1125 1125 0 1125 0 0 1125 0 1125 -1125 0 -1125 0 0
-1125z m941 531 c76 -27 182 -93 255 -159 29 -26 56 -47 60 -47 5 1 20 23 33
50 13 27 45 70 70 95 94 94 209 94 303 -2 194 -197 197 -719 6 -938 -43 -49
-110 -84 -175 -91 -122 -15 -334 80 -473 212 l-35 33 -33 -64 c-89 -170 -238
-213 -358 -103 -58 54 -119 178 -140 283 -20 106 -20 289 1 390 36 179 137
320 253 355 56 17 164 10 233 -14z"/>
<path d="M726 1606 c-58 -22 -86 -46 -128 -107 -131 -192 -128 -581 4 -766 94
-130 219 -107 295 52 l35 74 -67 87 c-69 91 -155 257 -174 336 -15 66 -14 154
4 188 35 67 113 81 183 31 69 -50 117 -134 143 -251 14 -62 12 -233 -4 -308
l-14 -63 61 -53 c184 -160 367 -230 479 -182 37 16 95 75 125 129 78 136 98
417 42 598 -66 219 -193 289 -310 169 -28 -28 -55 -69 -67 -101 l-20 -53 47
-57 c150 -181 238 -409 201 -522 -16 -47 -63 -87 -104 -87 -89 0 -173 113
-223 300 -17 64 -20 222 -5 295 l10 50 -62 60 c-156 150 -337 223 -451 181z"/>
<path d="M759 1449 c-41 -77 23 -278 139 -437 40 -54 47 -60 56 -45 6 10 10
74 10 143 0 103 -4 135 -21 183 -48 129 -151 217 -184 156z"/>
<path d="M1287 1255 c-11 -73 -8 -119 9 -202 29 -143 101 -263 158 -263 33 0
46 26 46 92 -1 95 -80 271 -174 383 l-33 39 -6 -49z"/>
</g>
</svg>
